HIERARCHY
ROOT Hips
{
	OFFSET 0.000000 0.000000 0.000000
	CHANNELS 6 Xposition Yposition Zposition Zrotation Yrotation Xrotation 
	JOINT LHipJoint
	{
		OFFSET 0.000000 0.000000 0.000000
		CHANNELS 3 Zrotation Yrotation Xrotation
		JOINT LeftUpLeg
		{
			OFFSET 1.363060 -1.794630 0.839290
			CHANNELS 3 Zrotation Yrotation Xrotation
			JOINT LeftLeg
			{
				OFFSET 2.448110 -6.726130 0.000000
				CHANNELS 3 Zrotation Yrotation Xrotation
				JOINT LeftFoot
				{
					OFFSET 2.562200 -7.039590 0.000000
					CHANNELS 3 Zrotation Yrotation Xrotation
					JOINT LeftToeBase
					{
						OFFSET 0.157640 -0.433110 2.322550
						CHANNELS 3 Zrotation Yrotation Xrotation
						End Site
						{
							OFFSET 0.000000 0.000000 0.000000
						}
					}
				}
			}
		}
	}
	JOINT RHipJoint
	{
		OFFSET 0.000000 0.000000 0.000000
		CHANNELS 3 Zrotation Yrotation Xrotation
		JOINT RightUpLeg
		{
			OFFSET -1.305520 -1.794630 0.839290
			CHANNELS 3 Zrotation Yrotation Xrotation
			JOINT RightLeg
			{
				OFFSET -2.542530 -6.985550 0.000000
				CHANNELS 3 Zrotation Yrotation Xrotation
				JOINT RightFoot
				{
					OFFSET -2.568260 -7.056230 0.000000
					CHANNELS 3 Zrotation Yrotation Xrotation
					JOINT RightToeBase
					{
						OFFSET -0.164730 -0.452590 2.363150
						CHANNELS 3 Zrotation Yrotation Xrotation
						End Site
						{
							OFFSET 0.000000 0.000000 0.000000
						}
					}
				}
			}
		}
	}
	JOINT LowerBack
	{
		OFFSET 0.000000 0.000000 0.000000
		CHANNELS 3 Zrotation Yrotation Xrotation
		JOINT Spine
		{
			OFFSET 0.028270 2.035590 -0.193380
			CHANNELS 3 Zrotation Yrotation Xrotation
			JOINT Spine1
			{
				OFFSET 0.056720 2.048850 -0.042750
				CHANNELS 3 Zrotation Yrotation Xrotation
				JOINT Neck
				{
					OFFSET 0.000000 0.000000 0.000000
					CHANNELS 3 Zrotation Yrotation Xrotation
					JOINT Neck1
					{
						OFFSET -0.054170 1.746240 0.172020
						CHANNELS 3 Zrotation Yrotation Xrotation
						JOINT Head
						{
							OFFSET 0.104070 1.761360 -0.123970
							CHANNELS 3 Zrotation Yrotation Xrotation
							End Site
							{
								OFFSET 0.000000 0.000000 0.000000
							}
						}
					}
				}
				JOINT LeftShoulder
				{
					OFFSET 0.000000 0.000000 0.000000
					CHANNELS 3 Zrotation Yrotation Xrotation
					JOINT LeftArm
					{
						OFFSET 3.362410 1.200890 -0.311210
						CHANNELS 3 Zrotation Yrotation Xrotation
						JOINT LeftForeArm
						{
							OFFSET 4.983000 -0.000000 -0.000000
							CHANNELS 3 Zrotation Yrotation Xrotation
							JOINT LeftHand
							{
								OFFSET 3.483560 -0.000000 -0.000000
								CHANNELS 3 Zrotation Yrotation Xrotation
								JOINT LeftFingerBase
								{
									OFFSET 0.000000 0.000000 0.000000
									CHANNELS 3 Zrotation Yrotation Xrotation
									JOINT LeftHandIndex1
									{
										OFFSET 0.715260 -0.000000 -0.000000
										CHANNELS 3 Zrotation Yrotation Xrotation
										End Site
										{
											OFFSET 0.000000 0.000000 0.000000
										}
									}
								}
								JOINT LThumb
								{
									OFFSET 0.000000 0.000000 0.000000
									CHANNELS 3 Zrotation Yrotation Xrotation
									End Site
									{
										OFFSET 0.000000 0.000000 0.000000
									}
								}
							}
						}
					}
				}
				JOINT RightShoulder
				{
					OFFSET 0.000000 0.000000 0.000000
					CHANNELS 3 Zrotation Yrotation Xrotation
					JOINT RightArm
					{
						OFFSET -3.136600 1.374050 -0.404650
						CHANNELS 3 Zrotation Yrotation Xrotation
						JOINT RightForeArm
						{
							OFFSET -5.241900 -0.000000 -0.000000
							CHANNELS 3 Zrotation Yrotation Xrotation
							JOINT RightHand
							{
								OFFSET -3.444170 -0.000000 -0.000000
								CHANNELS 3 Zrotation Yrotation Xrotation
								JOINT RightFingerBase
								{
									OFFSET 0.000000 0.000000 0.000000
									CHANNELS 3 Zrotation Yrotation Xrotation
									JOINT RightHandIndex1
									{
										OFFSET -0.622530 -0.000000 -0.000000
										CHANNELS 3 Zrotation Yrotation Xrotation
										End Site
										{
											OFFSET 0.000000 0.000000 0.000000
										}
									}
								}
								JOINT RThumb
								{
									OFFSET 0.000000 0.000000 0.000000
									CHANNELS 3 Zrotation Yrotation Xrotation
									End Site
									{
										OFFSET 0.000000 0.000000 0.000000
									}
								}
							}
						}
					}
				}
			}
		}
	}
}
MOTION
Frames: 5
Frame Time: 0.008333
10.948347 15.513128 14.331023 -86.825004 -74.432091 95.705390 0.727870 -1.720276 -2.843300 13.258210 5.840504 -45.803824 17.797014 19.830458 81.737539 2.349314 -15.990138 -12.231663 1.182100 -6.900200 -19.420100 -1.091326 0.137654 -0.844124 8.887143 -1.859853 -18.172706 -3.663497 -12.018729 35.377795 -1.111700 4.475201 -10.837404 -4.325200 12.581000 -37.819500 0.032345 0.899736 26.474240 0.876643 0.884090 0.248291 4.382242 -0.042258 -0.752697 -12.070763 -11.228444 -3.352999 10.832241 -16.215876 19.594986 5.646800 -8.208600 12.698200 -7.223555 3.177487 -1.821500 -56.188223 6.168194 -19.879898 12.757783 -26.664424 -3.739322 0.636126 -1.573086 6.193452 14.458641 30.630644 7.413100 -7.125000 0.000000 0.000000 -21.919500 61.685200 -9.142300 2.424915 -1.599132 0.585682 41.909995 -5.776445 -46.531048 -16.436230 26.404312 -4.129062 0.020143 -0.002608 -64.172258 -3.964071 -4.610850 0.318300 7.125000 0.000000 0.000000 18.483600 -34.095900 5.174500 
10.921643 15.513730 14.368971 -85.822824 -74.567905 94.610558 0.709724 -1.728614 -2.839264 12.961538 5.801973 -45.883322 17.847162 19.841403 81.893928 2.363835 -16.135448 -12.316405 1.146600 -6.799500 -19.122600 -1.083981 0.140858 -0.846202 8.673075 -2.554909 -17.858276 -3.581324 -11.892527 34.959729 -1.101543 4.437335 -10.760593 -4.498700 12.795900 -38.609400 -0.354045 0.917349 26.350411 0.853285 0.823197 0.238945 4.496751 -0.076074 -0.706007 -11.826778 -11.130473 -3.444222 10.868377 -16.125694 19.632626 5.614500 -8.137300 12.677500 -7.216124 3.171600 -1.830990 -55.904061 6.091312 -19.785508 12.834663 -26.796238 -3.808705 0.641633 -1.572743 5.925865 14.203000 30.237992 7.192800 -7.125000 0.000000 0.000000 -21.848400 61.259500 -8.890100 2.427585 -1.604503 0.580436 42.267900 -5.960541 -46.391546 -16.552645 26.539459 -4.178564 0.021112 0.001347 -64.635660 -5.138937 -4.949655 0.443800 7.125000 0.000000 0.000000 17.623700 -34.478800 4.740900 
10.893834 15.510015 14.414348 -84.347675 -74.482660 92.868695 0.690790 -1.729704 -2.831766 12.854081 5.676365 -45.876749 17.906244 19.855344 82.048779 2.412425 -16.339032 -12.655342 1.296200 -7.213300 -20.348700 -1.083953 0.143448 -0.847875 8.621506 -3.298361 -17.214945 -3.480376 -11.731827 34.436775 -1.097015 4.520153 -10.553251 -4.489500 12.784700 -38.567800 -0.367657 0.895746 26.499239 0.837008 0.786582 0.223305 4.400425 -0.083070 -0.810395 -11.255721 -11.134053 -3.412410 10.580702 -16.167839 19.661362 5.348700 -8.116300 12.558900 -7.196605 3.146540 -1.834759 -55.519479 6.042895 -19.334146 12.979139 -27.003845 -3.889648 0.643842 -1.576516 5.591154 14.222993 30.370290 7.235300 -7.125000 0.000000 0.000000 -21.941000 61.394900 -9.000500 2.445087 -1.600296 0.587233 42.797101 -6.481320 -45.948932 -16.849342 26.945229 -4.312862 0.019441 -0.009019 -65.475361 -3.133235 -4.946963 0.269300 7.125000 0.000000 0.000000 19.218900 -34.369700 5.265700 
10.871046 15.501482 14.467053 -83.202542 -73.892168 91.574720 0.706369 -1.716272 -2.831118 13.243940 5.637384 -46.051562 17.969676 19.858713 82.205108 2.413917 -16.729719 -12.587785 1.426500 -7.552500 -21.362800 -1.099969 0.139723 -0.839497 9.126985 -3.536461 -16.550174 -3.355389 -11.543961 33.819087 -1.034374 4.173221 -10.283697 -4.286800 12.532500 -37.642800 0.175142 0.769066 26.602344 0.854665 0.738778 0.186687 4.139255 -0.081301 -0.940959 -10.922285 -11.079305 -3.529163 10.431959 -16.135682 19.823050 5.220600 -8.077400 12.614400 -7.185930 3.125802 -1.847692 -55.217582 6.002953 -19.213472 13.136848 -27.205004 -3.971969 0.646170 -1.577018 5.529936 14.118358 30.417285 7.186500 -7.125000 0.000000 0.000000 -22.094200 61.412200 -9.075900 2.453337 -1.581023 0.584024 43.157705 -6.830570 -46.349773 -16.675049 26.673539 -4.227615 0.023356 -0.007199 -64.488413 -3.626836 -4.472446 0.281900 7.125000 0.000000 0.000000 18.719900 -33.943000 5.320400 
10.851369 15.500679 14.516546 -82.472702 -73.739440 91.018134 0.714484 -1.723940 -2.837581 13.127906 5.721109 -46.528525 18.002841 19.855038 82.312190 2.385980 -17.132031 -12.285061 1.394400 -7.470600 -21.117200 -1.098837 0.137032 -0.825796 9.181796 -3.525098 -16.202269 -3.216595 -11.333590 33.120960 -0.971002 3.783279 -10.074340 -4.113300 12.309700 -36.836600 0.110865 0.795881 26.313091 0.841322 0.764586 0.137475 4.116011 -0.054712 -0.924828 -10.725407 -11.046653 -3.866404 10.426627 -16.161350 20.121637 5.159300 -8.053000 12.840500 -7.176722 3.116726 -1.869540 -54.986379 5.891572 -19.019087 13.276607 -27.397903 -4.058926 0.642992 -1.576677 5.576887 14.008420 30.188026 7.080900 -7.125000 0.000000 0.000000 -22.008900 61.172200 -8.913300 2.454483 -1.573227 0.567934 43.420919 -7.081179 -47.215451 -16.469907 26.383965 -4.128937 0.022098 -0.011045 -63.939436 -2.903413 -4.548535 0.229200 7.125000 0.000000 0.000000 19.308300 -33.978400 5.487200 
